<?xml version="1.0" standalone="no"?>
<!DOCTYPE svg PUBLIC "-//W3C//DTD SVG 20010904//EN"
 "http://www.w3.org/TR/2001/REC-SVG-20010904/DTD/svg10.dtd">
<svg version="1.0" xmlns="http://www.w3.org/2000/svg"
 width="700.000000pt" height="700.000000pt" viewBox="0 0 700.000000 700.000000"
 preserveAspectRatio="xMidYMid meet">
<metadata>
Created by potrace 1.14, written by Peter Selinger 2001-2017
</metadata>
<g transform="translate(0.000000,700.000000) scale(0.100000,-0.100000)"
fill="#000000" stroke="none">
<path d="M0 6300 l0 -700 3500 0 3500 0 0 700 0 700 -3500 0 -3500 0 0 -700z"/>
<path d="M600 4193 c-211 -36 -373 -141 -486 -314 -50 -77 -75 -137 -98 -234
-14 -63 -15 -219 -13 -1575 3 -1313 5 -1511 18 -1550 82 -243 201 -373 439
-478 93 -41 20 -41 3070 -39 2793 2 2907 3 2960 21 30 10 59 22 65 27 5 5 16
9 25 9 8 1 43 18 77 39 162 98 277 255 322 438 19 75 19 140 20 1871 l1 1792
-700 0 -700 0 0 -1400 0 -1400 -2100 0 -2100 0 0 700 0 700 1400 0 1400 0 0
700 0 700 -1787 -1 c-984 -1 -1799 -4 -1813 -6z"/>
</g>
</svg>
